<?xml version="1.0" encoding="iso-8859-1"?>
<!-- Generator: Adobe Illustrator 16.0.0, SVG Export Plug-In . SVG Version: 6.00 Build 0)  -->
<!DOCTYPE svg PUBLIC "-//W3C//DTD SVG 1.1//EN" "http://www.w3.org/Graphics/SVG/1.1/DTD/svg11.dtd">
<svg xmlns="http://www.w3.org/2000/svg" xmlns:xlink="http://www.w3.org/1999/xlink" version="1.1" id="Capa_1" x="0px" y="0px" width="512px" height="512px" viewBox="0 0 564.148 564.148" style="enable-background:new 0 0 564.148 564.148;" xml:space="preserve">
<g>
	<path d="M154.336,142.011H94.674c-10.741,0-19.446,8.705-19.446,19.449v261.968c0,10.753,8.705,19.461,19.446,19.461h59.662   c10.741,0,19.446-8.708,19.446-19.461V161.46C173.782,150.722,165.071,142.011,154.336,142.011z M118.663,156.272h13.63v50.585   h-13.63V156.272z M163.409,412.407c0,10.753-8.705,19.461-19.449,19.461h-37.606c-10.741,0-19.458-8.708-19.458-19.461V311.253   c0-10.741,8.717-19.461,19.458-19.461h37.606c10.744,0,19.449,8.72,19.449,19.461V412.407z M125.485,368.321   c-11.804,0-21.412,9.597-21.412,21.397c0,11.807,9.608,21.397,21.412,21.397c11.789,0,21.397-9.591,21.397-21.397   C146.883,377.917,137.268,368.321,125.485,368.321z M125.485,403.333c-7.514,0-13.63-6.113-13.63-13.615   c0-7.514,6.11-13.621,13.63-13.621c7.499,0,13.616,6.107,13.616,13.621C139.095,397.22,132.984,403.333,125.485,403.333z M0,46.692   v470.765h564.148V46.692H0z M199.722,444.179c0,10.742-8.705,19.461-19.449,19.461H68.731c-10.744,0-19.449-8.719-19.449-19.461   V135.521c0-10.745,8.705-19.449,19.449-19.449h111.541c10.745,0,19.449,8.704,19.449,19.449V444.179z M309.305,447.431   c-24.716,0-44.749-20.033-44.749-44.743s20.033-44.743,44.749-44.743c24.71,0,44.743,20.033,44.743,44.743   S334.015,447.431,309.305,447.431z M431.374,447.431c-24.71,0-44.743-20.033-44.743-44.743s20.033-44.743,44.743-44.743   c24.716,0,44.75,20.033,44.75,44.743S456.09,447.431,431.374,447.431z M461.047,245.113h-66.494l-74.214-57.716l49.456,57.716   h-77.99c-35.466,0-64.204-28.74-64.204-64.194c0-35.467,28.738-64.204,64.204-64.204h169.242c35.457,0,64.191,28.737,64.191,64.204   C525.238,216.373,496.498,245.113,461.047,245.113z" fill="#FFFFFF"/>
</g>
<g>
</g>
<g>
</g>
<g>
</g>
<g>
</g>
<g>
</g>
<g>
</g>
<g>
</g>
<g>
</g>
<g>
</g>
<g>
</g>
<g>
</g>
<g>
</g>
<g>
</g>
<g>
</g>
<g>
</g>
</svg>
