<?xml version="1.0" encoding="iso-8859-1"?>
<!-- Generator: Adobe Illustrator 19.0.0, SVG Export Plug-In . SVG Version: 6.00 Build 0)  -->
<svg version="1.1" id="Layer_1" xmlns="http://www.w3.org/2000/svg" xmlns:xlink="http://www.w3.org/1999/xlink" x="0px" y="0px"
	 viewBox="0 0 512 512" style="enable-background:new 0 0 512 512;" xml:space="preserve">
<polygon style="fill:#F9F0B5;" points="512,417.684 256,332.563 0,417.684 0,451.442 512,451.442 "/>
<polygon style="fill:#C2D280;" points="512,383.926 256,298.804 0,383.926 0,417.684 512,417.684 "/>
<rect y="60.558" style="fill:#58AB5B;" width="512" height="323.37"/>
<path style="fill:#84C688;" d="M424.861,94.316H87.139c0,29.481-23.9,53.381-53.381,53.381v149.09
	c29.481,0,53.381,23.9,53.381,53.381h337.722c0-29.481,23.9-53.381,53.381-53.381v-149.09
	C448.761,147.697,424.861,123.797,424.861,94.316z"/>
<circle style="fill:#58AB5B;" cx="256" cy="222.242" r="94.163"/>
<path style="fill:#84C688;" d="M307.991,204.974c0-15.323-12.422-27.744-27.744-27.744c-10.431,0-19.51,5.76-24.247,14.271
	c-4.737-8.51-13.816-14.271-24.247-14.271c-15.323,0-27.744,12.422-27.744,27.744c0,6.281,2.089,12.073,5.607,16.724L256,283.007
	l46.384-61.308C305.903,217.048,307.991,211.256,307.991,204.974z"/>
<g>
</g>
<g>
</g>
<g>
</g>
<g>
</g>
<g>
</g>
<g>
</g>
<g>
</g>
<g>
</g>
<g>
</g>
<g>
</g>
<g>
</g>
<g>
</g>
<g>
</g>
<g>
</g>
<g>
</g>
</svg>
