<?xml version="1.0" encoding="iso-8859-1"?>
<!-- Generator: Adobe Illustrator 19.1.0, SVG Export Plug-In . SVG Version: 6.00 Build 0)  -->
<svg xmlns="http://www.w3.org/2000/svg" xmlns:xlink="http://www.w3.org/1999/xlink" version="1.1" id="Capa_1" x="0px" y="0px" viewBox="0 0 488.85 488.85" style="enable-background:new 0 0 488.85 488.85;" xml:space="preserve" width="512px" height="512px">
<g>
	<g>
		<g>
			<path d="M280.1,368.975c0-20.1,5-39.4,14.4-56.6c-13.3-7.5-23.1-12.4-27.2-14.4c-1.3-0.6-2-1.9-2-3.3v-79     c9.9-6.6,16.5-17.9,16.5-30.7v-81.9c0-40.7-33-73.8-73.8-73.8h-8.8h-8.8c-40.7,0-73.8,33-73.8,73.8v81.9     c0,12.8,6.6,24.1,16.5,30.7v79c0,1.4-0.8,2.7-2,3.3c-11.3,5.5-66,33.1-116.7,74.8c-9.2,7.5-14.4,18.8-14.4,30.7v56.1h199.1h123.3     c-2.7-2.2-5.2-4.6-7.7-7.1C292.4,430.175,280.1,400.475,280.1,368.975z" fill="darkorange"/>
		</g>
		<g>
			<path d="M462.3,304.875c-35.4-35.4-92.8-35.4-128.1,0c-35.4,35.4-35.4,92.8,0,128.1c35.4,35.4,92.8,35.4,128.1,0     C497.7,397.675,497.7,340.275,462.3,304.875z M445,397.075l-18.6,18.7l-28.2-28.2l-28.2,28.2l-18.6-18.7l28.2-28.2l-28.2-28.1     l18.7-18.7l28.2,28.2l28.2-28.2l18.7,18.7l-28.2,28.2L445,397.075z" fill="#ff0000"/>
		</g>
	</g>
</g>
<g>
</g>
<g>
</g>
<g>
</g>
<g>
</g>
<g>
</g>
<g>
</g>
<g>
</g>
<g>
</g>
<g>
</g>
<g>
</g>
<g>
</g>
<g>
</g>
<g>
</g>
<g>
</g>
<g>
</g>
</svg>
