<?xml version="1.0" encoding="iso-8859-1"?>
<!-- Generator: Adobe Illustrator 19.1.0, SVG Export Plug-In . SVG Version: 6.00 Build 0)  -->
<svg xmlns="http://www.w3.org/2000/svg" xmlns:xlink="http://www.w3.org/1999/xlink" version="1.1" id="Capa_1" x="0px" y="0px" viewBox="0 0 486 486" style="enable-background:new 0 0 486 486;" xml:space="preserve" width="512px" height="512px">
<g>
	<g>
		<path d="M451.6,388c-57.3-47.1-119.1-78.3-131.7-84.5c-1.4-0.7-2.3-2.1-2.3-3.7v-89.2c11.2-7.5,18.6-20.2,18.6-34.7V83.3    c0-46-37.3-83.3-83.3-83.3h-10h-10c-46,0-83.3,37.3-83.3,83.3v92.5c0,14.5,7.4,27.2,18.6,34.7v89.2c0,1.6-0.9,3-2.3,3.7    c-12.6,6.2-74.4,37.4-131.7,84.5C24,396.5,18,409.2,18,422.6V486h225h225v-63.4C468,409.2,462,396.5,451.6,388z" fill="darkorange"/>
	</g>
</g>
<g>
</g>
<g>
</g>
<g>
</g>
<g>
</g>
<g>
</g>
<g>
</g>
<g>
</g>
<g>
</g>
<g>
</g>
<g>
</g>
<g>
</g>
<g>
</g>
<g>
</g>
<g>
</g>
<g>
</g>
</svg>
